<svg width="130" height="130" viewBox="0 0 130 130" fill="none" xmlns="http://www.w3.org/2000/svg">
<path d="M21.6667 37.9167C21.6667 27.7029 21.6667 22.596 24.8397 19.423C28.0127 16.25 33.1196 16.25 43.3334 16.25H86.6667C96.8804 16.25 101.987 16.25 105.16 19.423C108.333 22.596 108.333 27.7029 108.333 37.9167V81.25C108.333 96.5705 108.333 104.231 103.574 108.99C98.8141 113.75 91.1539 113.75 75.8334 113.75H54.1667C38.846 113.75 31.1857 113.75 26.4262 108.99C21.6667 104.231 21.6667 96.5705 21.6667 81.25V37.9167Z" stroke="#33363F" stroke-width="8"/>
<path d="M81.25 97.5V113.75M48.75 97.5V113.75" stroke="#33363F" stroke-width="8" stroke-linecap="round"/>
<path d="M48.75 43.3335H81.25" stroke="#33363F" stroke-width="8" stroke-linecap="round"/>
<path d="M48.75 65H81.25" stroke="#33363F" stroke-width="8" stroke-linecap="round"/>
</svg>
