<svg width="196" height="130" viewBox="0 0 196 130" fill="none" xmlns="http://www.w3.org/2000/svg">
<path d="M178.524 39.7299H151.929V6.84215H159.101C160.989 6.84215 162.522 5.30971 162.522 3.42107C162.522 1.53243 160.989 0 159.101 0H151.929H107.646H85.8239C83.9352 0 82.4028 1.53243 82.4028 3.42107C82.4028 5.30971 83.9352 6.84215 85.8239 6.84215H106.141C106.141 6.84215 89.4834 83.2412 89.6236 83.758C84.0465 84.5507 79.1378 87.2883 75.5606 91.3085V39.1773C75.5606 37.2886 74.0282 35.7562 72.1396 35.7562C70.2509 35.7562 68.7185 37.2886 68.7185 39.1773V95.9991L11.8029 99.5943C10.5558 99.679 9.40643 100.303 8.64918 101.305L0.880642 111.577C-0.11707 112.895 -0.279687 114.637 0.457592 116.12C1.19691 117.599 2.68247 118.521 4.33758 118.521C4.33758 118.521 72.614 118.43 72.8504 118.378C76.893 125.292 84.3139 130 92.8869 130C104.616 130 114.248 121.254 115.843 109.959C116.133 110.037 145.432 110.137 145.432 110.137C147.103 121.345 156.705 130 168.371 130C180.039 130 189.639 121.345 191.311 110.137H195.63V56.8353C195.63 47.4051 187.957 39.7299 178.524 39.7299ZM9.38197 111.679L13.4132 106.347L70.0011 102.774C69.7786 104.062 69.6001 105.367 69.6001 106.717C69.6001 108.423 69.8116 110.076 70.1613 111.679H9.38197ZM178.524 46.5721C184.184 46.5721 188.787 51.1779 188.787 56.8353V95.7522C184.852 88.4556 177.226 83.4287 168.37 83.4287C156.702 83.4287 147.102 92.0837 145.432 103.296C145.432 103.296 124.093 103.153 124.101 103.073C125.556 88.057 136.046 69.709 149.349 66.3278L151.928 65.6729V46.5721H178.524ZM92.8865 123.159C83.8195 123.159 76.4426 115.782 76.4426 106.717C76.4426 97.6477 83.8195 90.2713 92.8865 90.2713C101.954 90.2713 109.33 97.6477 109.33 106.717C109.33 115.782 101.954 123.159 92.8865 123.159ZM115.842 103.474C115.085 98.0973 112.542 93.3219 108.76 89.7761L115.733 68.86C115.733 68.86 120.317 70.4079 120.696 70.4079C122.105 70.4079 123.424 69.5305 123.921 68.1272C124.551 66.3454 123.618 64.3899 121.838 63.7618L109.771 59.4943C107.989 58.8572 106.034 59.7971 105.406 61.5789C104.775 63.3608 105.708 65.3163 107.49 65.9443L109.281 66.5769L102.882 85.7714C100.791 84.7692 98.5394 84.0987 96.1605 83.7601C96.1759 83.7042 96.2163 83.6663 96.2273 83.6109L113.146 6.84174H145.087V60.492C129.627 66.1224 118.91 85.6911 117.291 102.413C117.262 102.721 117.333 103.006 117.382 103.295C117.382 103.296 116.132 103.396 115.842 103.474ZM168.37 123.159C159.305 123.159 151.929 115.782 151.929 106.717C151.929 97.6477 159.306 90.2713 168.37 90.2713C177.437 90.2713 184.814 97.6477 184.814 106.717C184.814 115.782 177.437 123.159 168.37 123.159Z" fill="black"/>
<path d="M90.4766 104.32C89.8375 104.957 89.472 105.826 89.472 106.735C89.472 107.603 89.8371 108.468 90.4766 109.153C91.1156 109.791 91.9821 110.156 92.893 110.156C93.8064 110.156 94.6724 109.791 95.3119 109.153C95.9489 108.516 96.3141 107.603 96.3141 106.735C96.3141 105.777 95.9489 104.913 95.3119 104.32C94.0803 103.042 91.7527 103.042 90.4766 104.32Z" fill="black"/>
<path d="M165.967 104.32C165.328 104.957 164.965 105.826 164.965 106.735C164.965 107.603 165.328 108.468 165.967 109.154C166.606 109.791 167.472 110.156 168.386 110.156C169.252 110.156 170.165 109.791 170.802 109.154C171.441 108.517 171.807 107.603 171.807 106.735C171.807 105.777 171.442 104.913 170.802 104.32C169.526 103.042 167.245 102.997 165.967 104.32Z" fill="black"/>
</svg>
