<svg width="130" height="130" viewBox="0 0 130 130" fill="none" xmlns="http://www.w3.org/2000/svg">
<path fill-rule="evenodd" clip-rule="evenodd" d="M15.0263 67.6074C16.6309 69.214 16.6293 71.8172 15.0227 73.4216L14.1797 74.2639C13.4595 74.9833 13.4595 76.1473 14.1797 76.8666C14.9026 77.5887 16.0767 77.5887 16.7996 76.8666L26.0736 67.6036C27.6802 65.9992 30.2834 66.0008 31.8881 67.6074C33.4927 69.214 33.4911 71.8172 31.8845 73.4216L22.6105 82.6841C18.6772 86.6128 12.3021 86.6128 8.36871 82.6841C4.4326 78.7533 4.4326 72.3773 8.36871 68.4459L9.21181 67.6036C10.8184 65.9992 13.4216 66.0008 15.0263 67.6074ZM41.636 73.0685C43.2416 74.6745 43.2416 77.2778 41.636 78.8833L30.0313 90.4879C28.4257 92.0934 25.8225 92.0934 24.2168 90.4879C22.6112 88.8819 22.6112 86.2792 24.2168 84.6731L35.8215 73.0685C37.4271 71.463 40.0304 71.463 41.636 73.0685ZM56.8522 88.266C58.4577 89.8721 58.4577 92.4753 56.8522 94.0808L45.3269 105.606C43.7212 107.211 41.118 107.211 39.5124 105.606C37.9068 104 37.9068 101.397 39.5124 99.7916L51.0378 88.266C52.6434 86.6605 55.2467 86.6605 56.8522 88.266ZM39.5264 90.4365C41.1141 92.0598 41.0851 94.6626 39.4617 96.2502L30.09 105.416C28.4666 107.003 25.8635 106.974 24.2759 105.351C22.6882 103.727 22.7172 101.125 24.3406 99.537L33.7123 90.3715C35.3357 88.7838 37.9388 88.8131 39.5264 90.4365ZM62.1892 98.139C63.7942 99.7456 63.7926 102.349 62.186 103.954L52.9118 113.216C52.1917 113.936 52.1917 115.1 52.9118 115.819C53.6347 116.541 54.809 116.541 55.5316 115.819L56.375 114.977C57.9816 113.372 60.5848 113.374 62.1892 114.98C63.7942 116.587 63.7926 119.19 62.186 120.795L61.3426 121.637C57.4096 125.565 51.0342 125.565 47.1009 121.637C43.1648 117.706 43.1648 111.33 47.1009 107.398L56.375 98.1357C57.9816 96.5308 60.5848 96.5324 62.1892 98.139Z" fill="#1C274C"/>
<path d="M58.7508 29.2995L46.9009 41.1138C44.7227 43.2854 42.7246 45.2774 41.1467 47.0781C40.1334 48.2345 39.1208 49.5001 38.263 50.8987L38.1475 50.7836C37.9283 50.565 37.8187 50.4556 37.7086 50.3489C35.6489 48.3504 33.2261 46.7615 30.5699 45.6671C30.428 45.6086 30.2839 45.5515 29.9958 45.4374L28.2314 44.7383C25.8412 43.7912 25.2042 40.7142 27.023 38.901C32.2427 33.6971 38.5097 27.4491 41.5342 26.1942C44.2016 25.0875 47.083 24.7193 49.8621 25.13C52.4083 25.5062 54.8172 26.8142 58.7508 29.2995Z" fill="#1C274C"/>
<path d="M78.9847 91.5048C79.9397 92.4744 80.574 93.1585 81.1471 93.8903C81.9038 94.8556 82.5803 95.881 83.1697 96.9556C83.8332 98.1657 84.3489 99.4581 85.3791 102.044C86.2182 104.148 89.005 104.704 90.6241 103.09L91.0157 102.699C96.2352 97.4957 102.502 91.2476 103.761 88.2321C104.871 85.5731 105.24 82.7001 104.828 79.9294C104.451 77.3912 103.139 74.99 100.647 71.0688L88.7575 82.9227C86.5302 85.1435 84.4875 87.1802 82.6404 88.7754C81.5333 89.7314 80.3221 90.6869 78.9847 91.5048Z" fill="#1C274C"/>
<path fill-rule="evenodd" clip-rule="evenodd" d="M83.9708 77.8236L111.214 50.6616C115.138 46.7499 117.1 44.794 118.133 42.3068C119.167 39.8197 119.167 37.0537 119.167 31.5217V28.8789C119.167 20.3722 119.167 16.1189 116.516 13.4762C113.865 10.8335 109.599 10.8335 101.067 10.8335H98.416C92.8672 10.8335 90.0928 10.8335 87.5984 11.8637C85.1035 12.8939 83.1421 14.8498 79.2182 18.7615L51.9741 45.9236C47.3895 50.4944 44.5467 53.3287 43.4459 56.0659C43.0981 56.931 42.9242 57.7862 42.9242 58.6838C42.9242 62.4207 45.9408 65.4286 51.9741 71.4438L52.785 72.252L62.2836 62.612C63.6383 61.2372 65.851 61.2204 67.2257 62.5751C68.6005 63.9298 68.6173 66.1425 67.2626 67.5173L57.7347 77.1871L58.3733 77.8236C64.4069 83.8388 67.4234 86.8461 71.1718 86.8461C72.0005 86.8461 72.793 86.6993 73.5898 86.4057C76.401 85.3706 79.2702 82.5095 83.9708 77.8236ZM96.7699 45.9256C93.2355 49.4491 87.5052 49.4491 83.9714 45.9256C80.437 42.402 80.437 36.6891 83.9714 33.1655C87.5052 29.6419 93.2355 29.6419 96.7699 33.1655C100.304 36.6891 100.304 42.402 96.7699 45.9256Z" fill="#1C274C"/>
</svg>
